<?xml version="1.0" encoding="UTF-8" standalone="no"?>
<svg
   xmlns:dc="http://purl.org/dc/elements/1.1/"
   xmlns:cc="http://creativecommons.org/ns#"
   xmlns:rdf="http://www.w3.org/1999/02/22-rdf-syntax-ns#"
   xmlns:svg="http://www.w3.org/2000/svg"
   xmlns="http://www.w3.org/2000/svg"
   xmlns:sodipodi="http://sodipodi.sourceforge.net/DTD/sodipodi-0.dtd"
   xmlns:inkscape="http://www.inkscape.org/namespaces/inkscape"
   version="1.1"
   id="svg2"
   xml:space="preserve"
   width="964"
   height="1053.3333"
   viewBox="0 0 964 1053.3333"
   sodipodi:docname="skull.svg"
   inkscape:version="0.92.5 (2060ec1f9f, 2020-04-08)"><metadata
     id="metadata8"><rdf:RDF><cc:Work
         rdf:about=""><dc:format>image/svg+xml</dc:format><dc:type
           rdf:resource="http://purl.org/dc/dcmitype/StillImage" /></cc:Work></rdf:RDF></metadata><defs
     id="defs6" /><sodipodi:namedview
     pagecolor="#ffffff"
     bordercolor="#666666"
     borderopacity="1"
     objecttolerance="10"
     gridtolerance="10"
     guidetolerance="10"
     inkscape:pageopacity="0"
     inkscape:pageshadow="2"
     inkscape:window-width="1920"
     inkscape:window-height="1049"
     id="namedview4"
     showgrid="false"
     inkscape:zoom="0.63371094"
     inkscape:cx="961.31397"
     inkscape:cy="599.94207"
     inkscape:window-x="1920"
     inkscape:window-y="0"
     inkscape:window-maximized="1"
     inkscape:current-layer="g10" /><g
     id="g10"
     inkscape:groupmode="layer"
     inkscape:label="ink_ext_XXXXXX"
     transform="matrix(1.3333333,0,0,-1.3333333,0,1053.3333)"><path
       inkscape:connector-curvature="0"
       id="path14"
       style="fill:#ffffff;fill-opacity:1;fill-rule:nonzero;stroke:none;stroke-width:0.1"
       d="m 595.355,623.504 c 0,0 -2.3,1.992 -6.605,5.723 -2.129,1.89 -4.805,4.168 -8.09,6.671 -3.285,2.504 -6.906,5.59 -11.238,8.668 -8.621,6.227 -19.223,13.637 -32.094,20.973 -12.726,7.582 -27.785,14.941 -44.66,21.816 -33.664,13.907 -75.719,23.883 -121.313,25.137 -45.539,1.387 -94.48,-6.558 -139.625,-24.699 C 186.508,669.879 145.43,642.09 113.32,609.754 80.9691,577.523 57.7422,541.078 42.6328,507.973 27.2461,474.848 20.1801,444.988 16.3672,424.133 14.293,413.695 13.6328,405.348 12.809,399.711 c -0.418,-2.82 -0.4379,-5.012 -0.5942,-6.477 -0.1128,-1.464 -0.1718,-2.222 -0.1718,-2.222 -0.961,-12.66 2.289,-12.785 3.2422,-0.266 0,0 0.0589,0.746 0.1679,2.199 0.1559,1.453 0.1719,3.625 0.5899,6.418 0.816,5.586 1.4648,13.856 3.523,24.196 3.782,20.66 10.7781,50.242 26.0238,83.058 14.9653,32.797 37.9801,68.906 70.0272,100.836 31.821,32.039 72.52,59.57 117.321,77.32 44.722,17.969 93.203,25.84 138.332,24.469 45.175,-1.246 86.832,-11.125 120.183,-24.906 16.719,-6.809 31.637,-14.102 44.246,-21.609 12.75,-7.27 23.258,-14.61 31.793,-20.778 4.293,-3.051 7.883,-6.109 11.133,-8.59 3.258,-2.476 5.91,-4.734 8.016,-6.613 4.269,-3.691 6.547,-5.664 6.547,-5.664 4.726,-4.125 7.425,-5.855 8.027,-5.219 0.523,0.539 -1.074,3.469 -5.86,7.641" /><path
       inkscape:connector-curvature="0"
       id="path16"
       style="fill:#ffffff;fill-opacity:1;fill-rule:nonzero;stroke:none;stroke-width:0.1"
       d="m 626.418,131.723 c 0,0 1.184,1.363 3.402,3.925 2.297,2.5 5.301,6.465 9.223,11.43 4.039,4.875 8.305,11.277 13.461,18.422 2.383,3.711 4.914,7.656 7.582,11.816 2.719,4.129 5.125,8.75 7.883,13.414 10.578,18.918 21.211,42.04 29.14,67.985 7.903,25.933 13.176,54.558 14.848,83.441 1.645,28.891 -0.562,57.934 -5.508,84.574 -4.926,26.676 -12.715,50.903 -21.164,70.875 -8.406,20.016 -17.426,35.739 -23.836,46.637 -3.41,5.324 -6.094,9.512 -7.926,12.363 -0.89,1.442 -1.671,2.485 -2.175,3.2 -0.508,0.711 -0.766,1.082 -0.766,1.082 -7.359,10.347 -9.953,8.383 -2.68,-1.848 0,0 0.262,-0.367 0.762,-1.07 0.5,-0.711 1.277,-1.742 2.156,-3.168 1.813,-2.832 4.469,-6.977 7.856,-12.254 6.344,-10.797 15.281,-26.367 23.613,-46.203 8.367,-19.782 16.082,-43.785 20.965,-70.207 4.898,-26.395 7.086,-55.172 5.457,-83.801 -1.656,-28.617 -6.883,-56.973 -14.711,-82.668 -7.855,-25.703 -18.391,-48.609 -28.867,-67.348 -2.735,-4.621 -5.117,-9.199 -7.809,-13.293 -2.644,-4.121 -5.152,-8.031 -7.515,-11.703 -5.11,-7.078 -9.329,-13.422 -13.336,-18.25 -3.883,-4.922 -6.86,-8.851 -9.137,-11.328 -2.199,-2.535 -3.371,-3.891 -3.371,-3.891 -4.078,-4.769 -5.598,-7.64 -5.035,-8.167 0.625,-0.583 3.363,1.207 7.488,6.035" /><path
       inkscape:connector-curvature="0"
       id="path18"
       style="fill:#ffffff;fill-opacity:1;fill-rule:nonzero;stroke:none;stroke-width:0.1"
       d="m 504.84,41.5082 c 0,0 20.355,8.8547 39.222,20.5348 4.661,2.9879 9.325,5.9769 13.696,8.7808 4.23,3.0082 8.183,5.8172 11.57,8.2231 3.422,2.3511 6.027,4.648 7.969,6.0941 1.906,1.5 2.996,2.3551 2.996,2.3551 5.035,3.8559 6.832,6.6519 6.316,7.2539 -0.535,0.641 -3.355,-0.891 -8.343,-4.7148 0,0 -1.082,-0.8442 -2.969,-2.3282 -1.926,-1.4371 -4.504,-3.7109 -7.899,-6.0429 -3.351,-2.3832 -7.265,-5.1641 -11.46,-8.1481 -4.329,-2.7738 -8.95,-5.7351 -13.571,-8.6961 C 523.676,53.25 503.508,44.477 503.508,44.477 c -2.856,-1.293 -4.922,-2.454 -6.238,-3.3829 -1.34,-0.8671 -1.922,-1.5242 -1.766,-1.9031 0.152,-0.375 1.047,-0.468 2.637,-0.1558 1.558,0.3707 3.808,1.1636 6.699,2.473" /><path
       inkscape:connector-curvature="0"
       id="path20"
       style="fill:#ffffff;fill-opacity:1;fill-rule:nonzero;stroke:none;stroke-width:0.1"
       d="m 162.457,72.9961 c 0,0 0.926,-0.6559 2.66,-1.891 1.789,-1.1481 4.41,-2.8391 7.75,-4.9922 3.34,-2.1477 7.367,-4.7969 12.215,-7.4719 4.789,-2.7699 10.168,-5.934 16.289,-8.9258 12.012,-6.4101 26.656,-12.6562 42.629,-18.5 15.996,-5.8363 33.609,-10.43 51.406,-13.9453 17.805,-3.6179 35.946,-5.2308 52.934,-5.989 4.254,-0.109 8.437,-0.2149 12.531,-0.32 4.094,0.027 8.102,0.1871 12,0.2661 7.809,0.0191 15.149,0.8902 21.941,1.3242 6.782,0.582 12.95,1.5699 18.446,2.2027 5.472,0.7891 10.199,1.7691 14.113,2.4262 1.957,0.3551 3.699,0.6719 5.219,0.9449 1.5,0.348 2.781,0.641 3.812,0.8789 2.078,0.4801 3.18,0.734 3.18,0.734 12.371,2.8562 11.508,5.9922 -0.719,3.1723 0,0 -1.093,-0.2543 -3.148,-0.7262 -1.027,-0.2391 -2.293,-0.532 -3.781,-0.8719 -1.504,-0.273 -3.231,-0.5851 -5.168,-0.9332 -3.879,-0.6519 -8.563,-1.625 -13.985,-2.4098 -5.441,-0.6211 -11.554,-1.6019 -18.273,-2.18 -6.731,-0.4262 -14,-1.2969 -21.735,-1.3121 -3.867,-0.079 -7.835,-0.2391 -11.89,-0.2618 -4.063,0.1008 -8.203,0.2067 -12.418,0.3157 -16.836,0.7543 -34.813,2.348 -52.445,5.9343 -17.633,3.4879 -35.079,8.0348 -50.926,13.8118 -15.824,5.789 -30.336,11.9812 -42.239,18.332 -6.062,2.9609 -11.39,6.098 -16.132,8.8441 -4.805,2.6449 -8.797,5.2739 -12.102,7.402 -3.309,2.1328 -5.906,3.8051 -7.68,4.9461 -1.718,1.2218 -2.636,1.8707 -2.636,1.8707 -10.211,7.266 -12.207,4.6953 -1.848,-2.6758" /><path
       inkscape:connector-curvature="0"
       id="path22"
       style="fill:#ffffff;fill-opacity:1;fill-rule:nonzero;stroke:none;stroke-width:0.1"
       d="m 81.109,151.059 c 0,0 2.2781,-2.899 5.7031,-7.254 3.3129,-4.446 8.2231,-9.965 13.0508,-15.551 4.8871,-5.543 10.1211,-10.758 13.9181,-14.789 4.008,-3.82 6.684,-6.367 6.684,-6.367 2.293,-2.188 4.152,-3.68 5.504,-4.547 1.394,-0.821 2.269,-1.028 2.539,-0.727 0.273,0.305 -0.055,1.114 -1.031,2.379 -0.934,1.313 -2.5,3.086 -4.778,5.258 0,0 -2.648,2.523 -6.617,6.309 -3.762,3.992 -8.953,9.16 -13.793,14.652 -4.7812,5.535 -9.6519,10.996 -12.93,15.406 -3.3942,4.313 -5.652,7.192 -5.652,7.192 -7.3238,10.164 -10.0308,8.355 -2.598,-1.961" /><path
       inkscape:connector-curvature="0"
       id="path24"
       style="fill:#ffffff;fill-opacity:1;fill-rule:nonzero;stroke:none;stroke-width:0.1"
       d="m 25.734,260.258 c 0,0 0.293,-1.035 0.8129,-2.848 0.6011,-1.785 1.4652,-4.336 2.5,-7.394 1.0742,-3.047 2.164,-6.661 3.6172,-10.426 1.4839,-3.758 3.0629,-7.766 4.641,-11.77 1.5269,-4.031 3.484,-7.882 5.0898,-11.582 1.6602,-3.683 3.1789,-7.133 4.7141,-9.98 2.95,-5.75 4.914,-9.582 4.914,-9.582 2.9571,-5.606 5.3911,-7.875 6.0508,-7.496 0.75,0.429 -0.2539,3.472 -3.1828,9.031 0,0 -1.9461,3.797 -4.868,9.496 -1.523,2.813 -3.0269,6.234 -4.6679,9.879 -1.593,3.668 -3.5313,7.48 -5.043,11.476 -1.566,3.969 -3.132,7.938 -4.5973,11.657 -1.4418,3.734 -2.5199,7.312 -3.5859,10.332 -1.0238,3.031 -1.8789,5.558 -2.4809,7.328 -0.5109,1.793 -0.8,2.816 -0.8,2.816 -3.4218,12.059 -6.5859,11.289 -3.114,-0.937" /><path
       inkscape:connector-curvature="0"
       id="path26"
       style="fill:#ffffff;fill-opacity:1;fill-rule:nonzero;stroke:none;stroke-width:0.1"
       d="m 310.969,719.426 c 0,0 -0.489,-0.063 -1.438,-0.18 -0.953,-0.152 -2.375,-0.238 -4.195,-0.601 -3.652,-0.653 -9.016,-1.614 -15.836,-2.829 -13.523,-2.945 -32.859,-7.488 -55.102,-15.902 -22.234,-8.336 -47.304,-20.531 -72.097,-36.891 -3.168,-1.933 -6.133,-4.23 -9.227,-6.378 -3.051,-2.219 -6.226,-4.305 -9.219,-6.68 -5.988,-4.742 -12.183,-9.379 -17.972,-14.606 -11.918,-10.058 -23.071,-21.351 -33.699,-33.074 l -7.7738,-8.973 c -2.609,-2.972 -4.9332,-6.175 -7.402,-9.246 C 72,577.965 67.6211,571.434 63.066,565.109 54.4531,552.129 46.3789,539.047 39.7969,525.73 32.902,512.574 27.4691,499.258 22.5699,486.57 20.3672,480.133 18.1801,473.879 16.2621,467.77 14.559,461.602 12.7191,455.688 11.309,449.918 10,444.125 8.625,438.602 7.54297,433.297 6.58984,427.969 5.68789,422.914 4.83984,418.164 4.09805,413.398 3.625,408.902 3.06602,404.766 2.80508,402.695 2.55508,400.707 2.31211,398.809 2.16797,396.902 2.02695,395.082 1.89492,393.355 1.43398,386.445 0.805078,381.027 0.832031,377.312 c -0.09414,-3.707 -0.14414,-5.687 -0.14414,-5.687 -0.325,-13.059 2.924999,-13.004 3.249999,-0.086 0,0 0.05,1.961 0.14414,5.637 -0.02695,3.683 0.59805,9.051 1.05508,15.902 0.12891,1.711 0.26484,3.512 0.41406,5.402 0.23399,1.883 0.48399,3.848 0.74571,5.903 0.55507,4.101 1.02304,8.555 1.7582,13.277 0.83984,4.707 1.73398,9.715 2.67502,14.996 1.0789,5.254 2.4379,10.731 3.7347,16.473 1.3942,5.715 3.2231,11.574 4.9063,17.691 1.9019,6.051 4.0699,12.246 6.2539,18.621 4.852,12.579 10.234,25.774 17.0699,38.813 6.5199,13.195 14.5199,26.16 23.059,39.019 4.516,6.274 8.8512,12.747 13.8121,18.789 2.4539,3.047 4.7539,6.219 7.3399,9.168 l 7.7031,8.891 c 10.536,11.617 21.59,22.809 33.399,32.777 5.734,5.176 11.875,9.77 17.808,14.473 2.965,2.356 6.118,4.418 9.137,6.621 3.07,2.129 6.004,4.406 9.145,6.324 24.57,16.207 49.418,28.293 71.449,36.559 22.035,8.332 41.195,12.832 54.598,15.754 6.761,1.207 12.074,2.152 15.695,2.801 1.805,0.359 3.215,0.449 4.156,0.593 0.942,0.122 1.426,0.184 1.426,0.184 12.801,1.625 12.531,4.871 -0.453,3.219" /><path
       inkscape:connector-curvature="0"
       id="path28"
       style="fill:#ffffff;fill-opacity:1;fill-rule:nonzero;stroke:none;stroke-width:0.1"
       d="m 499.758,695.629 c 0,0 -5.899,2.305 -14.746,5.766 -4.504,1.527 -9.754,3.3 -15.379,5.203 -5.711,1.632 -11.801,3.367 -17.895,5.109 -6.176,1.406 -12.351,2.82 -18.14,4.141 -5.848,1.047 -11.301,2.019 -15.985,2.855 -9.418,1.227 -15.699,2.043 -15.699,2.043 -6.473,0.832 -9.82,0.031 -9.879,-0.703 -0.074,-0.887 3.102,-1.703 9.52,-2.527 0,0 6.226,-0.813 15.562,-2.028 4.633,-0.828 10.039,-1.793 15.836,-2.828 5.738,-1.308 11.856,-2.707 17.977,-4.105 6.035,-1.723 12.07,-3.446 17.73,-5.059 5.578,-1.887 10.778,-3.648 15.242,-5.156 8.766,-3.43 14.614,-5.715 14.614,-5.715 5.984,-2.426 9.195,-3.187 9.554,-2.395 0.313,0.688 -2.25,2.942 -8.312,5.399" /><path
       inkscape:connector-curvature="0"
       id="path30"
       style="fill:#ffffff;fill-opacity:1;fill-rule:nonzero;stroke:none;stroke-width:0.1"
       d="m 689.215,514.023 c 0,0 -4.77,10.723 -13.438,26.016 -8.586,15.328 -21.527,34.981 -36.613,52.934 -15,18.011 -31.859,34.422 -45.445,45.57 -6.731,5.645 -12.594,10.055 -16.629,13.207 -4.176,2.973 -6.563,4.668 -6.563,4.668 -5.312,3.797 -8.441,4.988 -8.922,4.27 -0.421,-0.633 1.774,-3.157 7.036,-6.918 0,0 2.367,-1.684 6.507,-4.629 4,-3.125 9.805,-7.493 16.481,-13.086 13.465,-11.051 30.172,-27.317 45.039,-45.164 14.945,-17.793 27.773,-37.266 36.277,-52.457 8.594,-15.153 13.321,-25.786 13.321,-25.786 5.316,-11.761 8.339,-10.554 2.949,1.375" /><path
       inkscape:connector-curvature="0"
       id="path32"
       style="fill:#ffffff;fill-opacity:1;fill-rule:nonzero;stroke:none;stroke-width:0.1"
       d="m 466.367,16.1211 c 0,0 2.082,0.5039 5.863,1.8398 3.778,1.3442 9.418,3.0313 16.407,5.7032 14.015,5.223 33.711,13.7539 55.859,26.7191 5.641,3.0656 11.106,6.9289 16.973,10.5859 5.75,3.836 11.543,8.0391 17.472,12.3711 5.731,4.5938 11.852,9.0348 17.575,14.2188 2.902,2.543 5.902,5.039 8.8,7.6992 2.852,2.7148 5.727,5.4568 8.629,8.2218 11.399,11.258 22.68,23.45 32.887,36.844 l 3.906,4.977 3.703,5.152 c 2.434,3.469 4.965,6.887 7.34,10.422 4.594,7.176 9.324,14.301 13.442,21.805 4.425,7.324 8.086,15.062 12.019,22.621 3.449,7.785 7.199,15.41 10.117,23.312 6.364,15.598 11.161,31.504 15.051,47.051 7.547,31.184 10.539,61.172 10.41,86.809 0.02,25.672 -2.879,46.953 -5.445,61.672 -0.66,3.683 -1.246,6.972 -1.762,9.832 -0.586,2.847 -1.187,5.246 -1.625,7.203 -0.902,3.906 -1.383,5.988 -1.383,5.988 -1.382,6.383 -3.269,9.254 -4,9.055 -0.843,-0.227 -0.527,-3.496 0.84,-9.821 0,0 0.477,-2.066 1.371,-5.937 0.43,-1.938 1.028,-4.313 1.61,-7.133 0.508,-2.836 1.09,-6.098 1.746,-9.746 2.543,-14.586 5.418,-35.676 5.398,-61.117 0.125,-25.41 -2.84,-55.129 -10.316,-86.031 -3.856,-15.407 -8.609,-31.168 -14.918,-46.622 -2.891,-7.832 -6.606,-15.386 -10.027,-23.105 -3.899,-7.484 -7.524,-15.156 -11.907,-22.414 -4.082,-7.442 -8.773,-14.5 -13.324,-21.609 -2.351,-3.504 -4.859,-6.891 -7.273,-10.329 l -3.668,-5.109 -3.867,-4.93 c -10.118,-13.273 -21.301,-25.355 -32.594,-36.511 -2.875,-2.743 -5.727,-5.461 -8.551,-8.1531 -2.879,-2.6329 -5.852,-5.109 -8.727,-7.6289 -5.671,-5.136 -11.738,-9.5348 -17.414,-14.093 -5.879,-4.293 -11.617,-8.457 -17.316,-12.2539 -5.816,-3.6211 -11.23,-7.4531 -16.82,-10.4922 -21.95,-12.852 -41.465,-21.309 -55.356,-26.477 -6.926,-2.6519 -12.515,-4.3199 -16.258,-5.6519 -3.746,-1.3289 -5.808,-1.825 -5.808,-1.825 -12.414,-3.527 -11.649,-6.6871 0.941,-3.1129" /><path
       inkscape:connector-curvature="0"
       id="path34"
       style="fill:#ffffff;fill-opacity:1;fill-rule:nonzero;stroke:none;stroke-width:0.1"
       d="m 36.016,205.355 c 0,0 2.918,-5.707 8.0352,-15.703 5.566,-9.73 13.3976,-23.773 24.8359,-39.269 11.277,-15.571 25.7379,-32.852 43.1329,-49.465 17.355,-16.6371 37.621,-32.5739 59.414,-46.1129 21.754,-13.6141 45.039,-24.711 67.691,-32.8129 22.633,-8.1481 44.547,-13.50431 63.547,-16.48009 19.004,-3.02422 35.023,-4.26992 46.234,-4.546876 5.61,-0.137109 10.012,-0.242187 13.02,-0.313281 3.004,0.075 4.609,0.114063 4.609,0.114063 13.055,0.328124 12.875,3.578124 -0.047,3.253904 0,0 -1.586,-0.03984 -4.566,-0.11797 -2.977,0.075 -7.344,0.17618 -12.902,0.31328 -11.114,0.27696 -26.989,1.51172 -45.821,4.50782 -18.828,2.94885 -40.543,8.25395 -62.969,16.33205 -22.445,8.023 -45.523,19.023 -67.082,32.5109 -21.593,13.418 -41.679,29.211 -58.878,45.7 -17.243,16.464 -31.5712,33.589 -42.747,49.027 -11.3351,15.352 -19.0968,29.269 -24.6171,38.914 -5.0661,9.898 -7.961,15.559 -7.961,15.559 -5.3199,11.761 -8.3277,10.515 -2.9289,-1.411" /><path
       inkscape:connector-curvature="0"
       id="path36"
       style="fill:#ffffff;fill-opacity:1;fill-rule:nonzero;stroke:none;stroke-width:0.1"
       d="m 0.687891,352.055 c 0,0 0.035156,-1.344 0.092968,-3.7 0.047266,-2.351 0.110157,-5.718 0.485161,-9.742 0.3039,-4.023 0.66406,-8.722 1.05,-13.754 0.63281,-5.007 1.31289,-10.351 1.99296,-15.691 1.68321,-10.629 3.56211,-21.242 5.53907,-29.078 0.92895,-3.934 1.61675,-7.227 2.24605,-9.496 0.6438,-2.266 1.011,-3.563 1.011,-3.563 3.5711,-12.574 6.6679,-11.586 3.1371,0.848 0,0 -0.3633,1.285 -1,3.535 -0.6211,2.246 -1.3043,5.516 -2.2262,9.406 -1.9609,7.766 -3.82108,18.282 -5.48905,28.821 -0.675,5.293 -1.34687,10.586 -1.97578,15.547 -0.3832,4.988 -0.73906,9.644 -1.03906,13.632 -0.37109,3.989 -0.43398,7.321 -0.47695,9.657 -0.06211,2.332 -0.09727,3.664 -0.09727,3.664 -0.325,12.902 -3.578906,12.992 -3.249999,-0.086" /><path
       inkscape:connector-curvature="0"
       id="path38"
       style="fill:#ffffff;fill-opacity:1;fill-rule:nonzero;stroke:none;stroke-width:0.1"
       d="m 660.641,460.316 c 0,0 -0.895,2.575 -2.567,7.407 -0.808,2.429 -1.863,5.398 -3.297,8.82 -1.422,3.418 -2.855,7.437 -4.839,11.773 -3.903,8.707 -8.821,19.215 -15.532,30.696 -6.488,11.601 -14.886,24.074 -24.914,36.984 -19.918,25.91 -48.125,52.527 -82.988,73.957 -34.77,21.508 -76.359,37.293 -119.578,43.453 -43.176,6.364 -87.563,3.199 -127.024,-7.519 -39.593,-10.532 -73.996,-28.434 -100.59,-47.379 -26.82,-18.836 -45.703,-38.871 -58.023,-53.363 -12.293,-14.602 -18.215,-23.797 -18.215,-23.797 -6.4291,-9.41 -3.676,-11.141 2.672,-1.856 0,0 5.867,9.102 18.031,23.555 12.192,14.344 30.875,34.168 57.418,52.808 26.317,18.75 60.36,36.465 99.551,46.891 39.059,10.609 82.988,13.738 125.715,7.442 42.766,-6.098 83.926,-21.715 118.34,-43.004 34.508,-21.211 62.418,-47.547 82.129,-73.192 9.925,-12.777 18.238,-25.121 24.656,-36.601 6.641,-11.356 11.508,-21.766 15.371,-30.375 1.965,-4.293 3.379,-8.278 4.793,-11.657 1.418,-3.386 2.465,-6.328 3.262,-8.726 1.652,-4.781 2.539,-7.332 2.539,-7.332 1.82,-5.317 3.219,-7.848 4.054,-7.602 0.727,0.211 0.879,3.227 -0.964,8.617" /><path
       inkscape:connector-curvature="0"
       id="path40"
       style="fill:#ffffff;fill-opacity:1;fill-rule:nonzero;stroke:none;stroke-width:0.1"
       d="m 464.148,64.2379 c 0,0 1.532,0.532 4.407,1.5281 2.906,0.9102 7.019,2.6399 12.293,4.7422 5.328,1.9758 11.511,5.0387 18.726,8.2727 3.512,1.8171 7.254,3.7461 11.192,5.7812 3.964,1.993 7.906,4.4969 12.144,6.8867 16.703,9.9532 35.34,23.1532 53.145,39.7542 17.773,16.609 34.715,36.485 48.968,58.18 14.239,21.711 25.555,45.269 33.665,68.191 8.136,22.934 12.957,45.258 15.351,64.567 2.445,19.324 2.492,35.586 2.402,46.929 -0.265,5.668 -0.472,10.125 -0.617,13.164 -0.043,1.52 -0.179,2.68 -0.254,3.461 -0.074,0.782 -0.113,1.188 -0.113,1.188 -1.074,11.344 -4.301,10.937 -3.238,-0.262 0,0 0.035,-0.402 0.109,-1.176 0.07,-0.773 0.207,-1.922 0.254,-3.422 0.141,-3.011 0.344,-7.421 0.606,-13.031 0.085,-11.226 0.046,-27.32 -2.376,-46.445 -2.374,-19.106 -7.14,-41.195 -15.195,-63.895 -8.023,-22.679 -19.222,-46 -33.316,-67.492 -14.113,-21.472 -30.875,-41.14 -48.461,-57.574 -17.621,-16.434 -36.059,-29.488 -52.594,-39.3399 -4.195,-2.3629 -8.094,-4.8481 -12.019,-6.8199 -3.899,-2.0121 -7.598,-3.9223 -11.075,-5.7153 -7.136,-3.2027 -13.257,-6.2379 -18.535,-8.191 -5.219,-2.082 -9.289,-3.7929 -12.164,-4.6961 -2.844,-0.9836 -4.359,-1.5078 -4.359,-1.5078 -5.305,-1.8781 -7.75,-3.507 -7.52,-4.2461 0.25,-0.816 3.199,-0.7297 8.574,1.168" /><path
       inkscape:connector-curvature="0"
       id="path42"
       style="fill:#ffffff;fill-opacity:1;fill-rule:nonzero;stroke:none;stroke-width:0.1"
       d="m 329.203,48.684 c 0,0 19.789,-2.25 39.688,-1.641 4.968,0.23 9.929,0.4609 14.586,0.6761 4.636,0.4411 8.964,0.8508 12.675,1.1989 3.719,0.2929 6.774,0.9058 8.93,1.164 2.152,0.309 3.379,0.484 3.379,0.484 5.648,0.7391 8.281,2.184 8.141,2.9692 -0.149,0.8199 -3.036,0.9769 -8.625,0.2457 0,0 -1.215,-0.1758 -3.344,-0.4797 -2.137,-0.25 -5.16,-0.8633 -8.84,-1.1492 -3.672,-0.3469 -7.957,-0.754 -12.547,-1.1868 -4.605,-0.2152 -9.519,-0.4422 -14.434,-0.6722 -19.691,-0.6051 -39.277,1.625 -39.277,1.625 -5.601,0.5 -8.496,0.0859 -8.601,-0.684 -0.118,-0.8391 2.589,-2.043 8.269,-2.55" /><path
       inkscape:connector-curvature="0"
       id="path44"
       style="fill:#ffffff;fill-opacity:1;fill-rule:nonzero;stroke:none;stroke-width:0.1"
       d="m 77.2809,226.754 c 0,0 0.4261,-0.926 1.2191,-2.664 0.8711,-1.695 2.152,-4.184 3.7809,-7.352 1.6293,-3.172 3.5711,-7.039 6.141,-11.289 2.4761,-4.301 5.2383,-9.172 8.6519,-14.242 6.4612,-10.371 15.0352,-21.797 24.8282,-33.504 9.809,-11.711 21.438,-23.18 33.688,-33.898 12.211,-10.797 25.582,-20.192 38.441,-28.403 3.262,-1.9918 6.465,-3.9532 9.598,-5.8668 3.195,-1.8161 6.375,-3.4922 9.441,-5.1762 6.078,-3.4918 12.172,-6.1051 17.641,-8.8199 5.535,-2.586 10.769,-4.586 15.328,-6.559 4.606,-1.843 8.719,-3.1992 12.055,-4.4449 3.332,-1.2622 6,-2.1133 7.836,-2.6372 1.828,-0.5578 2.8,-0.855 2.8,-0.855 10.891,-3.3321 11.715,-0.184 0.961,3.109 0,0 -0.961,0.289 -2.769,0.8441 -1.817,0.516 -4.457,1.3559 -7.754,2.609 -3.305,1.2308 -7.375,2.575 -11.934,4.3949 -4.507,1.957 -9.687,3.934 -15.164,6.4961 -5.418,2.6879 -11.445,5.2738 -17.461,8.7269 -3.035,1.6641 -6.16,3.375 -9.351,5.125 -3.102,1.8981 -6.274,3.8399 -9.496,5.8079 -12.727,8.1291 -25.965,17.4221 -38.047,28.1101 -12.121,10.609 -23.629,21.957 -33.34,33.546 -9.687,11.586 -18.176,22.891 -24.5699,33.153 -3.375,5.019 -6.1063,9.84 -8.559,14.097 -2.5391,4.204 -4.4652,8.032 -6.0781,11.172 -1.609,3.133 -2.8789,5.598 -3.7418,7.278 -0.7852,1.718 -1.2071,2.636 -1.2071,2.636 -4.6679,10.215 -7.6839,8.981 -2.9382,-1.394" /><path
       inkscape:connector-curvature="0"
       id="path46"
       style="fill:#ffffff;fill-opacity:1;fill-rule:nonzero;stroke:none;stroke-width:0.1"
       d="m 49.0898,323.91 c 0,0 0.4692,-3.281 1.1762,-8.199 0.5781,-4.941 1.9219,-11.434 3.168,-17.941 1.3082,-6.493 3.039,-12.899 4.1789,-17.731 1.4031,-4.769 2.3359,-7.945 2.3359,-7.945 1.5512,-5.477 3.2352,-7.922 4.0434,-7.656 0.7379,0.242 0.6098,3.16 -0.9262,8.578 0,0 -0.925,3.148 -2.3121,7.867 -1.1289,4.785 -2.8437,11.125 -4.1367,17.551 -1.2301,6.441 -2.5621,12.867 -3.1371,17.757 -0.6992,4.868 -1.1641,8.114 -1.1641,8.114 -1.1281,11.172 -4.3711,10.953 -3.2262,-0.395" /><path
       inkscape:connector-curvature="0"
       id="path48"
       style="fill:#ffffff;fill-opacity:1;fill-rule:nonzero;stroke:none;stroke-width:0.1"
       d="m 55.0512,433.605 c 0,0 -0.2352,-0.937 -0.6492,-2.582 -0.3321,-1.652 -0.804,-4.023 -1.3711,-6.867 -0.5348,-2.847 -1.3079,-6.144 -1.8668,-9.726 -0.5352,-3.578 -1.102,-7.403 -1.6762,-11.227 -0.6207,-3.812 -0.8277,-7.683 -1.2418,-11.281 -0.359,-3.606 -0.7301,-6.969 -0.8082,-9.867 -0.2899,-5.789 -0.4848,-9.649 -0.4848,-9.649 -0.2152,-5.687 0.7379,-8.543 1.5078,-8.543 0.859,-0.008 1.527,2.813 1.7422,8.434 0,0 0.1918,3.82 0.4809,9.551 0.0781,2.871 0.4449,6.199 0.8,9.765 0.4109,3.563 0.614,7.391 1.2308,11.164 0.5622,3.785 1.125,7.567 1.6563,11.11 0.5508,3.547 1.3199,6.808 1.848,9.625 0.5618,2.812 1.0309,5.16 1.359,6.797 0.4059,1.625 0.6367,2.55 0.6367,2.55 2.7461,10.891 -0.3789,11.805 -3.1636,0.746" /><path
       inkscape:connector-curvature="0"
       id="path50"
       style="fill:#ffffff;fill-opacity:1;fill-rule:nonzero;stroke:none;stroke-width:0.1"
       d="m 483.086,663.418 c 0,0 -1.621,0.742 -4.742,1.926 -3.145,1.133 -7.754,2.801 -13.617,4.922 -11.872,3.789 -28.989,8.953 -50.118,12.406 -21.086,3.508 -46.117,5.285 -72.808,3.687 -3.344,-0.078 -6.688,-0.535 -10.071,-0.816 -3.371,-0.359 -6.792,-0.555 -10.191,-1.059 -6.801,-1.004 -13.719,-1.828 -20.586,-3.296 -13.812,-2.481 -27.59,-6.262 -41.156,-10.614 l -10.098,-3.5 c -3.367,-1.14 -6.625,-2.594 -9.933,-3.875 -6.649,-2.504 -13,-5.621 -19.399,-8.508 -12.562,-6.238 -24.742,-12.808 -35.867,-20.222 -11.297,-7.157 -21.523,-15.086 -31.055,-22.778 -4.613,-4.027 -9.133,-7.918 -13.379,-11.812 -4.105,-4.047 -8.203,-7.828 -11.898,-11.691 -14.953,-15.317 -25.641,-29.672 -32.7969,-39.86 -3.4691,-5.183 -6.3981,-9.121 -8.0473,-12.027 -1.7457,-2.852 -2.6758,-4.367 -2.6758,-4.367 -6.132,-10.039 -3.2851,-11.618 2.7739,-1.704 0,0 0.9222,1.508 2.6441,4.329 1.6328,2.879 4.5391,6.777 7.9692,11.91 7.0858,10.082 17.6678,24.293 32.4728,39.457 3.656,3.824 7.711,7.566 11.777,11.57 4.203,3.859 8.672,7.707 13.242,11.692 9.438,7.613 19.559,15.468 30.746,22.55 11.012,7.348 23.071,13.848 35.504,20.024 6.332,2.851 12.625,5.945 19.207,8.422 3.274,1.265 6.496,2.707 9.836,3.836 l 9.996,3.464 c 13.43,4.309 27.071,8.055 40.75,10.508 6.793,1.453 13.641,2.27 20.379,3.266 3.364,0.496 6.746,0.687 10.086,1.047 3.348,0.277 6.66,0.73 9.969,0.808 26.422,1.578 51.207,-0.179 72.078,-3.652 20.914,-3.418 37.863,-8.527 49.613,-12.281 5.805,-2.098 10.368,-3.75 13.481,-4.871 3.094,-1.172 4.695,-1.907 4.695,-1.907 10.703,-4.488 12.086,-1.543 1.219,3.016" /><path
       inkscape:connector-curvature="0"
       id="path52"
       style="fill:#ffffff;fill-opacity:1;fill-rule:nonzero;stroke:none;stroke-width:0.1"
       d="m 619.555,559.891 c 0,0 -3.563,4.453 -8.903,11.136 -2.824,3.211 -6.117,6.961 -9.648,10.977 -3.719,3.84 -7.684,7.937 -11.652,12.035 -4.18,3.879 -8.364,7.758 -12.278,11.395 -4.09,3.445 -7.902,6.664 -11.176,9.418 -6.789,5.195 -11.316,8.664 -11.316,8.664 -4.676,3.562 -7.691,4.375 -8.117,3.761 -0.504,-0.726 1.562,-2.855 6.187,-6.382 0,0 4.481,-3.434 11.207,-8.579 3.239,-2.726 7.016,-5.91 11.063,-9.32 3.879,-3.601 8.016,-7.441 12.152,-11.281 3.93,-4.059 7.856,-8.113 11.535,-11.914 3.496,-3.977 6.758,-7.688 9.551,-10.867 5.289,-6.614 8.813,-11.024 8.813,-11.024 3.574,-4.578 5.797,-6.566 6.5,-6.062 0.621,0.441 -0.301,3.402 -3.918,8.043" /><path
       inkscape:connector-curvature="0"
       id="path54"
       style="fill:#ffffff;fill-opacity:1;fill-rule:nonzero;stroke:none;stroke-width:0.1"
       d="m 685.512,333.043 c 0,0 1.109,10.508 1.23,26.328 0.211,15.817 -1.035,36.957 -4.715,57.742 -3.586,20.797 -9.347,41.176 -14.914,55.985 -2.715,7.429 -5.297,13.504 -7.023,17.781 -1.918,4.195 -3.016,6.59 -3.016,6.59 -2.429,5.351 -4.406,7.656 -5.176,7.277 -0.691,-0.34 -0.191,-3.332 2.219,-8.629 0,0 1.086,-2.375 2.988,-6.531 1.707,-4.231 4.266,-10.246 6.95,-17.602 5.515,-14.656 11.215,-34.836 14.769,-55.422 3.641,-20.582 4.871,-41.511 4.668,-57.167 -0.121,-15.665 -1.222,-26.067 -1.222,-26.067 -1.145,-11.551 2.074,-12.016 3.242,-0.285" /><path
       inkscape:connector-curvature="0"
       id="path56"
       style="fill:#ffffff;fill-opacity:1;fill-rule:nonzero;stroke:none;stroke-width:0.1"
       d="m 287.676,45.1879 c 0,0 1.847,-0.5469 5.398,-1.2078 3.551,-0.6563 8.707,-1.8781 15.36,-2.9371 13.277,-2.2418 32.472,-4.4528 55.574,-4.3129 5.777,-0.1481 11.777,0.4031 17.996,0.614 6.211,0.3981 12.617,1.0661 19.191,1.777 6.535,1.0039 13.305,1.7148 20.098,3.1719 3.406,0.68 6.871,1.2769 10.328,2.0429 3.441,0.836 6.922,1.6762 10.43,2.527 13.953,3.6492 28.234,8.075 42.222,13.9223 l 5.282,2.1207 5.207,2.3523 c 3.461,1.6047 6.968,3.1328 10.41,4.8199 6.808,3.527 13.707,6.9528 20.293,10.9489 6.746,3.7191 13.086,8.1062 19.551,12.2269 6.195,4.5121 12.55,8.7691 18.382,13.6211 11.981,9.293 22.883,19.535 32.911,29.902 19.921,20.914 35.75,42.95 47.187,62.989 11.57,20.004 18.887,37.902 23.512,50.531 1.144,3.168 2.168,5.996 3.054,8.457 0.825,2.48 1.434,4.625 1.973,6.348 1.059,3.449 1.621,5.289 1.621,5.289 1.793,5.597 1.535,8.711 0.801,8.902 -0.84,0.223 -2.145,-2.441 -3.922,-7.984 0,0 -0.558,-1.821 -1.601,-5.239 -0.536,-1.707 -1.141,-3.824 -1.954,-6.281 -0.878,-2.437 -1.89,-5.238 -3.027,-8.371 -4.574,-12.504 -11.816,-30.223 -23.277,-50.027 -11.324,-19.848 -26.996,-41.661 -46.715,-62.36 -9.93,-10.265 -20.719,-20.406 -32.578,-29.605 -5.774,-4.805 -12.067,-9.016 -18.199,-13.4881 -6.403,-4.0789 -12.676,-8.418 -19.356,-12.102 -6.519,-3.957 -13.348,-7.348 -20.086,-10.8398 -3.41,-1.668 -6.887,-3.1801 -10.312,-4.7691 l -5.153,-2.3321 -5.23,-2.098 C 469.195,58.0082 455.055,53.625 441.242,50.016 c -3.469,-0.8441 -6.914,-1.6801 -10.32,-2.5039 -3.426,-0.7582 -6.856,-1.3519 -10.227,-2.0199 -6.726,-1.4492 -13.429,-2.1481 -19.902,-3.1442 -6.508,-0.7 -12.848,-1.364 -18.992,-1.7578 -6.16,-0.2031 -12.098,-0.7582 -17.821,-0.6062 -22.871,-0.136 -41.875,2.0512 -55.011,4.2699 -6.586,1.0473 -11.696,2.2582 -15.207,2.902 -3.516,0.6562 -5.344,1.1961 -5.344,1.1961 -11.254,2.8359 -12.168,-0.286 -0.742,-3.1641" /><path
       inkscape:connector-curvature="0"
       id="path58"
       style="fill:#ffffff;fill-opacity:1;fill-rule:nonzero;stroke:none;stroke-width:0.1"
       d="m 37.352,386.41 c 0,0 -0.2899,-5.765 -0.8008,-15.859 -0.0434,-10.094 -0.2543,-24.567 1.6867,-41.793 1.782,-17.219 5.2781,-37.196 11.3601,-57.981 6.0391,-20.777 14.668,-42.324 25.5622,-62.687 10.832,-20.402 23.9918,-39.539 38.0078,-56.043 13.973,-16.547 28.644,-30.582 42.121,-41.457 13.453,-10.906 25.383,-19.0861 33.996,-24.3521 4.313,-2.6328 7.695,-4.6988 10.008,-6.1047 2.375,-1.293 3.645,-1.9852 3.645,-1.9852 10.328,-5.621 11.792,-2.714 1.585,2.8399 0,0 -1.253,0.684 -3.605,1.9609 -2.285,1.3953 -5.645,3.4422 -9.91,6.0473 -8.531,5.2109 -20.34,13.3129 -33.656,24.1089 -13.34,10.77 -27.864,24.661 -41.7,41.04 -13.875,16.339 -26.902,35.281 -37.625,55.48 -10.7848,20.16 -19.3239,41.488 -25.304,62.063 -6.0242,20.574 -9.4851,40.359 -11.246,57.402 -1.9258,17.055 -1.711,31.387 -1.6758,41.375 0.5078,9.992 0.7968,15.699 0.7968,15.699 1.1442,11.547 -2.082,11.969 -3.246,0.246" /><path
       inkscape:connector-curvature="0"
       id="path60"
       style="fill:#ffffff;fill-opacity:1;fill-rule:nonzero;stroke:none;stroke-width:0.1"
       d="m 75.8441,516.676 c 0,0 -0.582,-1.063 -1.5941,-2.926 -1.023,-1.859 -2.4879,-4.508 -4.0078,-7.809 -1.5703,-3.281 -3.4063,-7.105 -5.375,-11.199 -1.7543,-4.191 -3.6332,-8.66 -5.5043,-13.129 -3.4758,-9.047 -6.7848,-18.164 -8.7731,-25.164 -1.0429,-3.484 -1.9878,-6.363 -2.5238,-8.414 -0.5148,-2.058 -0.816,-3.234 -0.816,-3.234 -2.875,-11.406 0.3051,-12.102 3.1449,-0.832 0,0 0.293,1.164 0.8082,3.199 0.527,2.035 1.4649,4.883 2.5,8.332 1.9649,6.926 5.2418,15.953 8.6801,24.91 1.859,4.426 3.7109,8.852 5.4527,12.996 1.945,4.059 3.7621,7.844 5.32,11.086 1.5043,3.274 2.957,5.899 3.9691,7.735 1.0039,1.843 1.5738,2.898 1.5738,2.898 5.5473,10.187 2.7782,11.895 -2.8547,1.551" /><path
       inkscape:connector-curvature="0"
       id="path62"
       style="fill:#ffffff;fill-opacity:1;fill-rule:nonzero;stroke:none;stroke-width:0.1"
       d="m 555.789,341.051 c 2.5,24.953 -3.769,53.84 -8.894,78.285 -4.997,23.836 -13.012,47.648 -26.911,67.875 -15.933,23.184 -40.066,38.254 -65.257,49.699 -56.848,25.836 -118.262,25.91 -175.274,0 -25.195,-11.445 -49.328,-26.515 -65.258,-49.699 -13.898,-20.227 -21.914,-44.039 -26.914,-67.875 -5.125,-24.445 -11.394,-53.332 -8.894,-78.285 2.664,-26.563 17.437,-49.43 18.722,-76.645 0.985,-20.871 -10.652,-46.738 -0.445,-66.359 11.07,-21.285 37.621,-26.527 64.422,-25.277 15.629,0.726 28.531,-12.082 28.012,-27.719 l -0.012,-0.317 c -0.258,-7.609 -3.348,-18.879 3.355,-24.757 3.563,-3.125 6.832,-3.563 9.739,-2.434 2.761,-6.09 8.922,-10.336 15.886,-7.578 0.211,0.078 0.364,0.207 0.563,0.297 3.777,-5.543 10.496,-8.496 17.418,-6.899 1.398,0.325 2.668,0.871 3.875,1.512 4.555,-6.9262 12.609,-10.7848 20.883,-7.7578 2.511,0.918 4.59,2.4566 6.285,4.3208 1.691,-1.8642 3.769,-3.4028 6.285,-4.3208 8.27,-3.027 16.324,0.8316 20.883,7.7578 1.207,-0.641 2.472,-1.187 3.875,-1.512 6.918,-1.597 13.64,1.356 17.414,6.899 0.203,-0.09 0.355,-0.219 0.562,-0.297 6.969,-2.758 13.129,1.488 15.891,7.578 2.902,-1.129 6.172,-0.691 9.738,2.434 6.703,5.878 3.614,17.148 3.352,24.757 l -0.008,0.317 c -0.512,15.613 12.629,28.41 28.238,27.707 26.727,-1.207 53.157,4.062 64.196,25.289 10.203,19.621 -1.43,45.488 -0.446,66.359 1.285,27.215 16.055,50.082 18.719,76.645" /><path
       inkscape:connector-curvature="0"
       id="path64"
       style="fill:#808080;fill-opacity:1;fill-rule:nonzero;stroke:none;stroke-width:0.1"
       d="m 283.711,318.961 c -0.996,0.035 -1.981,0.062 -2.949,0.094 -10.653,0.383 -23.66,3.64 -33.211,-2.344 -9.457,-5.926 -11.305,-20.621 -12.828,-30.484 -3.274,-21.18 6.687,-50.797 33.488,-45.098 5.98,1.273 11.496,4.851 16.82,7.648 8.871,4.664 17.215,6.235 26.489,9.203 9.789,3.137 15.945,10.223 17.699,20.45 2.347,13.679 -3.629,27.226 -15.5,34.511 -8.754,5.371 -19.875,5.711 -30.008,6.02" /><path
       inkscape:connector-curvature="0"
       id="path66"
       style="fill:#808080;fill-opacity:1;fill-rule:nonzero;stroke:none;stroke-width:0.1"
       d="m 457.195,318.961 c 0.993,0.035 1.977,0.062 2.946,0.094 10.656,0.383 23.664,3.64 33.211,-2.344 9.457,-5.926 11.304,-20.621 12.832,-30.484 3.269,-21.18 -6.688,-50.797 -33.489,-45.098 -5.984,1.273 -11.496,4.851 -16.824,7.648 -8.867,4.664 -17.215,6.235 -26.488,9.203 -9.789,3.137 -15.942,10.223 -17.695,20.45 -2.352,13.679 3.624,27.226 15.5,34.511 8.753,5.371 19.871,5.711 30.007,6.02" /><path
       inkscape:connector-curvature="0"
       id="path68"
       style="fill:#808080;fill-opacity:1;fill-rule:nonzero;stroke:none;stroke-width:0.1"
       d="m 390.543,222.133 c -4.902,12.234 -11.078,24.062 -16.645,36.004 -0.867,1.855 -6.023,1.855 -6.89,0 -5.567,-11.942 -11.742,-23.77 -16.645,-36.004 -3.492,-8.715 -4.777,-17.957 2.172,-25.285 4.41,-4.645 9.367,-7.809 15.051,-3.985 1.066,0.719 2,1.442 2.867,2.18 0.863,-0.738 1.797,-1.461 2.867,-2.18 5.684,-3.824 10.637,-0.66 15.051,3.985 6.949,7.328 5.664,16.57 2.172,25.285" /><path
       inkscape:connector-curvature="0"
       id="path70"
       style="fill:#4d4d4d;fill-opacity:1;fill-rule:nonzero;stroke:none;stroke-width:0.1"
       d="m 240.23,343.43 c -8.75,4.554 -11.691,14.226 -14.648,23.074 -4.164,12.453 -6.684,25.633 -5.531,38.801 0,0 -4.836,-13.961 0.945,-36.453 2.738,-10.633 13.543,-21.391 10.629,-33.036 -0.91,-3.636 -3.156,-6.761 -4.813,-10.125 -2.746,-5.586 -3.863,-11.964 -3.175,-18.152 0.058,-0.527 0.148,-1.082 0.504,-1.473 0.683,-0.757 -1.551,14.215 15.277,22.723 6.418,3.238 3.098,7.926 24.281,8.418 0.492,0.012 0.555,0.727 0.063,0.805 -7.086,1.097 -19.336,3.23 -23.532,5.418" /><path
       inkscape:connector-curvature="0"
       id="path72"
       style="fill:#4d4d4d;fill-opacity:1;fill-rule:nonzero;stroke:none;stroke-width:0.1"
       d="m 503.875,343.43 c 8.746,4.554 11.687,14.226 14.648,23.074 4.165,12.453 6.68,25.633 5.528,38.801 0,0 4.836,-13.961 -0.946,-36.453 -2.734,-10.633 -13.539,-21.391 -10.625,-33.036 0.907,-3.636 3.153,-6.761 4.809,-10.125 2.75,-5.586 3.863,-11.964 3.176,-18.152 -0.059,-0.527 -0.149,-1.082 -0.5,-1.473 -0.684,-0.757 1.547,14.215 -15.281,22.723 -6.418,3.238 -3.098,7.926 -24.278,8.418 -0.496,0.012 -0.558,0.727 -0.066,0.805 7.09,1.097 19.336,3.23 23.535,5.418" /><path
       inkscape:connector-curvature="0"
       id="path74"
       style="fill:#4d4d4d;fill-opacity:1;fill-rule:nonzero;stroke:none;stroke-width:0.1"
       d="m 403.703,541.555 c -27.914,1.297 -127.566,12.566 -176.586,-72.645 0,0 33.313,46.66 61.395,49.754 0.011,-2.578 -2.7,-11.344 -2.7,-11.344 17.137,13.012 8.094,-12.058 8.094,-12.058 0,0 9.629,1.062 12.258,1.023 18.18,-0.273 24.098,-17.195 27.711,-31.969 1.887,-7.703 3.227,-15.519 4.598,-23.328 0.601,-3.433 1.199,-6.867 1.902,-10.281 0.516,-2.516 1.684,-5.227 1.945,-7.75 0,0 -6.925,67.387 -27.019,79.449 -3.207,1.926 -13.672,-0.597 -13.981,-0.054 0.344,3.425 -4.668,17.929 -1.648,20.011 31.199,21.528 104.031,19.192 104.031,19.192" /><path
       inkscape:connector-curvature="0"
       id="path76"
       style="fill:#ffffff;fill-opacity:1;fill-rule:nonzero;stroke:none;stroke-width:0.1"
       d="m 403.203,587.93 c -92.515,12.3 -188.34,-33.961 -236.469,-113.871 -0.851,-1.418 8.118,-15.942 9.383,-13.844 47.5,78.871 141.957,124.117 233.18,111.984 2.406,-0.32 -4.485,15.516 -6.094,15.731" /><path
       inkscape:connector-curvature="0"
       id="path78"
       style="fill:#ffffff;fill-opacity:1;fill-rule:nonzero;stroke:none;stroke-width:0.1"
       d="M 294.684,787.832 C 202.168,800.137 106.348,753.875 58.2191,673.965 57.3629,672.547 172.09,509.852 173.789,511.617 c 57.133,59.336 124.066,91.703 193.242,90.434 2.426,-0.043 -70.738,185.566 -72.347,185.781" /><path
       inkscape:connector-curvature="0"
       id="path80"
       style="fill:#ffffff;fill-opacity:1;fill-rule:nonzero;stroke:none;stroke-width:0.1"
       d="m 282.773,309.629 6.989,-14.16 c 0.136,-0.281 0.406,-0.473 0.715,-0.52 l 15.625,-2.269 c 0.777,-0.114 1.089,-1.071 0.523,-1.621 l -11.305,-11.02 c -0.222,-0.219 -0.324,-0.531 -0.273,-0.84 l 2.672,-15.558 c 0.133,-0.778 -0.68,-1.371 -1.379,-1.004 l -13.973,7.347 c -0.277,0.149 -0.609,0.149 -0.887,0 l -13.972,-7.347 c -0.699,-0.367 -1.512,0.226 -1.379,1.004 l 2.668,15.558 c 0.055,0.309 -0.047,0.621 -0.27,0.84 l -11.308,11.02 c -0.563,0.55 -0.25,1.507 0.527,1.621 l 15.625,2.269 c 0.309,0.047 0.574,0.239 0.715,0.52 l 6.984,14.16 c 0.348,0.703 1.356,0.703 1.703,0" /><path
       inkscape:connector-curvature="0"
       id="path82"
       style="fill:#ffffff;fill-opacity:1;fill-rule:nonzero;stroke:none;stroke-width:0.1"
       d="m 459.832,309.629 6.988,-14.16 c 0.141,-0.281 0.407,-0.473 0.715,-0.52 l 15.625,-2.269 c 0.778,-0.114 1.09,-1.071 0.524,-1.621 l -11.305,-11.02 c -0.227,-0.219 -0.328,-0.531 -0.274,-0.84 l 2.668,-15.558 c 0.137,-0.778 -0.679,-1.371 -1.375,-1.004 l -13.976,7.347 c -0.274,0.149 -0.606,0.149 -0.883,0 l -13.977,-7.347 c -0.695,-0.367 -1.507,0.226 -1.374,1.004 l 2.671,15.558 c 0.051,0.309 -0.054,0.621 -0.273,0.84 l -11.309,11.02 c -0.562,0.55 -0.25,1.507 0.528,1.621 l 15.625,2.269 c 0.308,0.047 0.574,0.239 0.715,0.52 l 6.984,14.16 c 0.348,0.703 1.355,0.703 1.703,0" /></g></svg>