<?xml version="1.0" encoding="UTF-8" standalone="no"?>
<svg
   xmlns:dc="http://purl.org/dc/elements/1.1/"
   xmlns:cc="http://creativecommons.org/ns#"
   xmlns:rdf="http://www.w3.org/1999/02/22-rdf-syntax-ns#"
   xmlns:svg="http://www.w3.org/2000/svg"
   xmlns="http://www.w3.org/2000/svg"
   xmlns:sodipodi="http://sodipodi.sourceforge.net/DTD/sodipodi-0.dtd"
   xmlns:inkscape="http://www.inkscape.org/namespaces/inkscape"
   version="1.1"
   id="svg2"
   xml:space="preserve"
   width="666.66669"
   height="666.66669"
   viewBox="0 0 666.66669 666.66669"
   sodipodi:docname="winModal.svg"
   inkscape:version="0.92.5 (2060ec1f9f, 2020-04-08)"><metadata
     id="metadata8"><rdf:RDF><cc:Work
         rdf:about=""><dc:format>image/svg+xml</dc:format><dc:type
           rdf:resource="http://purl.org/dc/dcmitype/StillImage" /></cc:Work></rdf:RDF></metadata><defs
     id="defs6" /><sodipodi:namedview
     pagecolor="#ffffff"
     bordercolor="#666666"
     borderopacity="1"
     objecttolerance="10"
     gridtolerance="10"
     guidetolerance="10"
     inkscape:pageopacity="0"
     inkscape:pageshadow="2"
     inkscape:window-width="1920"
     inkscape:window-height="1049"
     id="namedview4"
     showgrid="false"
     inkscape:zoom="0.708"
     inkscape:cx="48.072511"
     inkscape:cy="216.37371"
     inkscape:window-x="1920"
     inkscape:window-y="0"
     inkscape:window-maximized="1"
     inkscape:current-layer="g10" /><g
     id="g10"
     inkscape:groupmode="layer"
     inkscape:label="ink_ext_XXXXXX"
     transform="matrix(1.3333333,0,0,-1.3333333,0,666.66667)"><path
       inkscape:connector-curvature="0"
       id="path14"
       style="fill:none;fill-opacity:1;fill-rule:nonzero;stroke:none;stroke-width:0.1"
       d="M 0,0 H 500 V 500 H 0 Z" /><path
       inkscape:connector-curvature="0"
       id="path18"
       style="fill:#225500;fill-opacity:1;fill-rule:nonzero;stroke:none;stroke-width:0.1"
       d="m 364.35,286.12 c -0.03,-0.17 -0.11,-0.31 -0.21,-0.431 -0.32,-0.399 -0.9,-0.54 -1.39,-0.239 -3.01,1.9 -10.78,4.21 -26.84,-4.92 -1.08,-0.611 -2.14,-1.2 -3.19,-1.76 -20.3,-10.791 -35.33,-11.38 -46.18,-6.98 -8.73,3.549 -16.97,-6.78 -20.34,-11.82 -0.55,-0.81 -1.81,-0.48 -1.9,0.489 l -2.2,24.091 -4.21,45.94 -0.04,0.219 -8.59,26.601 c -0.2,0.62 0.2,1.27 0.85,1.35 3.56,0.46 13.99,1.36 19.5,-3 l 0.01,-0.011 c 6.71,-5.31 11.76,-18.989 13.89,-25.94 2.14,-6.949 14.08,-23.699 20.86,-28.87 6.77,-5.17 15.86,-10.509 28.33,-8.549 12.48,1.96 24.03,2.75 27.27,0.89 1.79,-1.031 3.06,-1.81 3.77,-3.341 0.45,-1.339 0.59,-2.659 0.61,-3.719" /><path
       inkscape:connector-curvature="0"
       id="path20"
       style="fill:#112b00;fill-opacity:1;fill-rule:nonzero;stroke:none;stroke-width:0.1"
       d="m 332.72,278.77 c -20.3,-10.791 -35.33,-11.38 -46.18,-6.98 -8.73,3.549 -16.97,-6.78 -20.34,-11.82 -0.55,-0.81 -1.81,-0.48 -1.9,0.489 l -2.2,24.091 c 3.07,21.84 6.72,46.849 6.72,46.849 0,0 7.8,-25.77 11.13,-40.17 3.33,-14.39 16.01,-21.14 25.19,-20.569 0,0 -11.64,15.9 -13.78,29.219 -2.14,13.321 4.27,-23.509 24.95,-22.559 6.61,0.309 12.06,0.849 16.41,1.45" /><path
       inkscape:connector-curvature="0"
       id="path22"
       style="fill:#1a1a1a;fill-opacity:1;fill-rule:nonzero;stroke:none;stroke-width:0.1"
       d="m 199.394,211.866 c 0,0 0.308,-2.022 -6.138,-4.852 -6.445,-2.83 -12.105,-4.952 -12.105,-8.664 0,-1.966 16.507,-2.263 21.695,-1.398 5.189,0.864 12.263,0.69 14.543,1.398 2.279,0.707 0.078,13.459 -4.638,16.76 -4.716,3.302 -13.357,-3.244 -13.357,-3.244" /><path
       inkscape:connector-curvature="0"
       id="path24"
       style="fill:#808080;fill-opacity:1;fill-rule:nonzero;stroke:none;stroke-width:0.1"
       d="m 212.384,226.744 c -0.485,1.013 -0.918,3.229 -1.258,5.457 -0.358,2.676 -0.704,5.475 -0.976,8.244 -1.172,11.925 -0.458,19.624 -1.716,24.183 13.004,6.171 22.921,5.612 35.885,14.94 l -12.474,23.344 c 0,0 -36.23,-14.016 -42.462,-19.928 -4.725,-4.483 -8.711,-7.977 -6.585,-16.073 1.791,-6.818 6.535,-23.633 8.848,-33.171 0.006,-0.032 3.76,-21.251 5.855,-21.774 2.096,-0.525 12.996,0.943 15.444,2.411 2.526,1.514 0.802,3.039 0.32,5.869 -0.482,2.829 0.272,4.087 -0.881,6.498" /><path
       inkscape:connector-curvature="0"
       id="path26"
       style="fill:#1a1a1a;fill-opacity:1;fill-rule:nonzero;stroke:none;stroke-width:0.1"
       d="m 277.995,177.379 c 0,0 -0.865,-5.109 -2.516,-7.704 -1.651,-2.594 -12.852,-3.301 -12.813,-7.546 0.022,-2.373 6.996,-2.358 17.529,-2.201 10.534,0.157 11.321,6.117 15.879,8.718 4.56,2.601 6.996,5.51 -2.987,14.943 -9.983,9.432 -15.092,-6.21 -15.092,-6.21" /><path
       inkscape:connector-curvature="0"
       id="path28"
       style="fill:#b3b3b3;fill-opacity:1;fill-rule:nonzero;stroke:none;stroke-width:0.1"
       d="m 293.089,190.897 c 0.129,2.909 -0.307,4.794 -2.88,8.018 -0.977,1.224 -1.586,2.774 -2.18,4.686 -0.138,0.54 -0.278,1.081 -0.412,1.628 -0.46,1.872 -1.168,3.988 -2.028,6.23 -0.514,1.42 -1.123,2.943 -1.884,4.582 l -0.009,0.018 c -4.575,10.515 -9.987,19.664 -10.3,21.842 -0.432,2.993 -0.538,25.394 -0.426,31.488 0.111,6.094 -1.702,21.539 -1.702,21.539 l -36.193,5.064 c 0,0 5.503,-34.975 8.49,-47.238 2.987,-12.263 2.65,-18.006 11.308,-33.686 5.347,-9.682 9.651,-16.602 13.425,-23.431 0.009,-0.019 3.146,-6.797 4.167,-9.701 0.953,-2.713 2.123,-6.033 5.908,-6.055 0.23,-0.02 0.52,-0.003 0.856,0.045 h 0.001 c 4.476,0.507 7.094,2.384 7.094,2.384 0,0 7.208,2.919 7.679,5.041 0.472,2.122 -1.042,4.637 -0.914,7.546" /><path
       inkscape:connector-curvature="0"
       id="path30"
       style="fill:#ccc6c7;fill-opacity:1;fill-rule:nonzero;stroke:none;stroke-width:0.1"
       d="m 233.55,357.348 c -0.591,0.09 -10.055,-5.125 -11.851,-4.888 -1.979,0.261 -4.808,2.219 -8.057,3.391 -3.249,1.171 -11.576,8.927 -14.092,11.261 -2.515,2.334 -3.458,4.176 -6.603,1.84 -3.144,-2.336 -5.03,-4.626 -4.611,-6.154 0.419,-1.527 5.078,-8.711 7.174,-11.855 2.096,-3.144 17.371,-13.018 23.411,-13.741 6.04,-0.723 20.505,0.306 20.504,0.787 0,0.482 -5.875,19.359 -5.875,19.359" /><path
       inkscape:connector-curvature="0"
       id="path32"
       style="fill:#002255;fill-opacity:1;fill-rule:nonzero;stroke:none;stroke-width:0.1"
       d="m 272.1,290.339 c -0.42,-2.659 -5.63,-5.73 -12.78,-6.159 -2.73,-0.17 -5.75,0.06 -8.89,0.84 -8.13,2.02 -13.36,7.069 -15.69,9.79 -0.9,1.06 -1.88,2.069 -2.88,3.049 -1.74,1.691 -4.93,2.961 -3.48,9.801 0.7,3.239 1.22,5.81 1.51,8.02 0.1,0.67 0.17,1.31 0.22,1.92 0.01,0.16 0.02,0.319 0.03,0.48 0.08,1.19 0.07,2.29 -0.04,3.39 -0.14,1.46 -0.45,2.9 -0.95,4.489 -0.49,1.581 -0.88,3.351 -1.17,5.241 -1.17,7.65 -0.73,17.08 0.4,22 1.42,6.13 20.95,7.61 28.68,2.65 0,0 6.22,-1.46 8.97,-10.29 0.79,-2.52 1.5,-5.451 2.11,-8.63 0.24,-1.241 0.47,-2.511 0.68,-3.821 1.15,-7.119 1.86,-15.139 1.99,-22.63 0.01,-0.479 0.02,-0.939 0.03,-1.39 0.04,-1.319 0.09,-2.529 0.16,-3.659 0.49,-8.56 1.6,-11.97 1.1,-15.091" /><path
       inkscape:connector-curvature="0"
       id="path34"
       style="fill:#f0c052;fill-opacity:1;fill-rule:nonzero;stroke:none;stroke-width:0.1"
       d="m 260.986,317.327 c 0,-1.074 -0.871,-1.945 -1.944,-1.945 -1.074,0 -1.944,0.871 -1.944,1.945 0,1.073 0.87,1.944 1.944,1.944 1.073,0 1.944,-0.871 1.944,-1.944" /><path
       inkscape:connector-curvature="0"
       id="path36"
       style="fill:#f0c052;fill-opacity:1;fill-rule:nonzero;stroke:none;stroke-width:0.1"
       d="m 242.917,311.178 c 0,-1.074 -0.871,-1.944 -1.945,-1.944 -1.074,0 -1.945,0.87 -1.945,1.944 0,1.074 0.871,1.945 1.945,1.945 1.074,0 1.945,-0.871 1.945,-1.945" /><path
       inkscape:connector-curvature="0"
       id="path38"
       style="fill:#f0c052;fill-opacity:1;fill-rule:nonzero;stroke:none;stroke-width:0.1"
       d="m 246.263,293.178 c 0,-1.073 -0.87,-1.944 -1.944,-1.944 -1.074,0 -1.945,0.871 -1.945,1.944 0,1.074 0.871,1.945 1.945,1.945 1.074,0 1.944,-0.871 1.944,-1.945" /><path
       inkscape:connector-curvature="0"
       id="path40"
       style="fill:#f0c052;fill-opacity:1;fill-rule:nonzero;stroke:none;stroke-width:0.1"
       d="m 262.931,297.937 c 0,-1.074 -0.87,-1.945 -1.945,-1.945 -1.074,0 -1.944,0.871 -1.944,1.945 0,1.074 0.87,1.944 1.944,1.944 1.075,0 1.945,-0.87 1.945,-1.944" /><path
       inkscape:connector-curvature="0"
       id="path42"
       style="fill:#f0c052;fill-opacity:1;fill-rule:nonzero;stroke:none;stroke-width:0.1"
       d="m 271,305.43 c -0.8,0.239 -1.38,0.98 -1.38,1.86 0,0.819 0.51,1.52 1.22,1.799 0.04,-1.319 0.09,-2.529 0.16,-3.659" /><path
       inkscape:connector-curvature="0"
       id="path44"
       style="fill:#f0c052;fill-opacity:1;fill-rule:nonzero;stroke:none;stroke-width:0.1"
       d="m 268.82,333.109 c -0.14,-0.029 -0.29,-0.049 -0.44,-0.049 -1.07,0 -1.94,0.87 -1.94,1.95 0,0.99 0.74,1.81 1.7,1.92 0.24,-1.241 0.47,-2.511 0.68,-3.821" /><path
       inkscape:connector-curvature="0"
       id="path46"
       style="fill:#f0c052;fill-opacity:1;fill-rule:nonzero;stroke:none;stroke-width:0.1"
       d="m 231.87,319.53 c 0,-1.011 -0.77,-1.841 -1.76,-1.93 0.01,0.16 0.02,0.319 0.03,0.48 0.08,1.19 0.07,2.29 -0.04,3.39 1,-0.091 1.77,-0.92 1.77,-1.94" /><path
       inkscape:connector-curvature="0"
       id="path48"
       style="fill:#f0c052;fill-opacity:1;fill-rule:nonzero;stroke:none;stroke-width:0.1"
       d="m 233.811,346.437 c 0,-1.075 -0.871,-1.945 -1.944,-1.945 -1.074,0 -1.945,0.87 -1.945,1.945 0,1.073 0.871,1.944 1.945,1.944 1.073,0 1.944,-0.871 1.944,-1.944" /><path
       inkscape:connector-curvature="0"
       id="path50"
       style="fill:#1f3140;fill-opacity:1;fill-rule:nonzero;stroke:none;stroke-width:0.1"
       d="m 255.084,284.239 c -1.481,0.128 -3.012,0.375 -4.575,0.761 1.562,-0.384 3.095,-0.631 4.575,-0.761" /><path
       inkscape:connector-curvature="0"
       id="path52"
       style="fill:#cdc6a3;fill-opacity:1;fill-rule:nonzero;stroke:none;stroke-width:0.1"
       d="m 228.531,301.607 c -0.078,0.189 -0.149,0.389 -0.212,0.6 0.063,-0.211 0.134,-0.411 0.212,-0.6 v 0" /><path
       inkscape:connector-curvature="0"
       id="path54"
       style="fill:#172330;fill-opacity:1;fill-rule:nonzero;stroke:none;stroke-width:0.1"
       d="m 234.094,295.548 c -0.719,0.792 -1.472,1.558 -2.235,2.307 -1.019,0.994 -2.539,1.841 -3.328,3.752 v 0 c 0.79,-1.91 2.309,-2.756 3.329,-3.748 0.765,-0.75 1.519,-1.517 2.234,-2.311" /><path
       inkscape:connector-curvature="0"
       id="path56"
       style="fill:#cdc6a3;fill-opacity:1;fill-rule:nonzero;stroke:none;stroke-width:0.1"
       d="m 228.886,310.045 c 0.284,1.38 0.526,2.626 0.722,3.773 -0.194,-1.147 -0.436,-2.394 -0.722,-3.773 m 1.074,6.135 c 0.079,0.645 0.139,1.259 0.177,1.854 -0.009,-0.145 -0.018,-0.289 -0.027,-0.434 -0.037,-0.457 -0.086,-0.93 -0.15,-1.42 m 0.18,1.896 c 0.073,1.168 0.065,2.255 -0.034,3.329 0.058,-0.597 0.086,-1.195 0.086,-1.808 0.001,-0.493 -0.017,-0.997 -0.052,-1.517 0,-10e-4 0,-0.002 0,-0.004 m -1.167,8.477 c -0.41,1.425 -0.74,2.992 -0.995,4.647 0.001,0.001 0.001,0.001 0.002,0.001 V 331.2 c 0.254,-1.657 0.585,-3.222 0.993,-4.647" /><path
       inkscape:connector-curvature="0"
       id="path58"
       style="fill:#00112b;fill-opacity:1;fill-rule:nonzero;stroke:none;stroke-width:0.1"
       d="m 257.595,284.129 c -0.817,0 -1.656,0.035 -2.511,0.11 -1.48,0.13 -3.013,0.377 -4.575,0.761 -0.027,0.007 -0.054,0.013 -0.08,0.02 -8.125,2.02 -13.356,7.066 -15.685,9.792 -0.213,0.248 -0.43,0.493 -0.65,0.736 -0.715,0.794 -1.469,1.561 -2.234,2.311 -1.02,0.992 -2.539,1.838 -3.329,3.748 -0.078,0.189 -0.149,0.389 -0.212,0.6 -0.383,1.292 -0.453,3.019 0.065,5.449 0.179,0.84 0.347,1.635 0.502,2.389 0.286,1.379 0.528,2.626 0.722,3.773 0.143,0.835 0.261,1.618 0.352,2.362 0.064,0.49 0.113,0.963 0.15,1.42 0.009,0.145 0.018,0.289 0.027,0.434 v 0 c -0.009,-0.145 -0.018,-0.289 -0.027,-0.434 0.99,0.089 1.76,0.919 1.76,1.93 0,1.02 -0.77,1.849 -1.77,1.94 -0.139,1.464 -0.448,2.905 -0.949,4.49 -0.061,0.195 -0.12,0.392 -0.178,0.593 -0.408,1.425 -0.739,2.99 -0.993,4.647 v 0.001 c 1.208,0.861 2.565,1.453 4.014,1.453 0.169,0 0.338,-0.008 0.509,-0.025 5.558,-0.555 23.889,-2.593 23.889,-2.593 0,0 -1.164,-4.693 -12.58,-8.557 -11.406,-3.864 -10.612,-12.253 -4.825,-17.175 5.787,-4.923 9.765,-6.237 12.906,-13.965 1.508,-3.705 4.614,-5.399 7.427,-6.157 -0.563,-0.035 -1.139,-0.053 -1.725,-0.053 m -13.276,10.994 c -1.074,0 -1.945,-0.871 -1.945,-1.945 0,-1.073 0.871,-1.944 1.945,-1.944 1.074,0 1.944,0.871 1.944,1.944 0,1.074 -0.87,1.945 -1.944,1.945" /><path
       inkscape:connector-curvature="0"
       id="path60"
       style="fill:#e8a338;fill-opacity:1;fill-rule:nonzero;stroke:none;stroke-width:0.1"
       d="m 244.319,291.234 c -1.074,0 -1.945,0.871 -1.945,1.944 0,1.074 0.871,1.945 1.945,1.945 1.074,0 1.944,-0.871 1.944,-1.945 0,-1.073 -0.87,-1.944 -1.944,-1.944" /><path
       inkscape:connector-curvature="0"
       id="path62"
       style="fill:#e8a338;fill-opacity:1;fill-rule:nonzero;stroke:none;stroke-width:0.1"
       d="m 230.11,317.6 c 0.009,0.145 0.018,0.289 0.027,0.434 0.001,0.014 0.002,0.028 0.003,0.042 0,0.002 0,0.003 0,0.004 0.035,0.52 0.053,1.024 0.052,1.517 0,0.613 -0.028,1.211 -0.086,1.808 -0.002,0.021 -0.004,0.043 -0.006,0.065 1,-0.091 1.77,-0.92 1.77,-1.94 0,-1.011 -0.77,-1.841 -1.76,-1.93" /><path
       inkscape:connector-curvature="0"
       id="path64"
       style="fill:#d09023;fill-opacity:1;fill-rule:nonzero;stroke:none;stroke-width:0.1"
       d="m 164.398,344.616 -3.665,3.841 7.941,7.724 3.665,-3.841 -7.941,-7.724" /><path
       inkscape:connector-curvature="0"
       id="path66"
       style="fill:#e9b229;fill-opacity:1;fill-rule:nonzero;stroke:none;stroke-width:0.1"
       d="m 169.497,350.19 -2.351,2.464 c -5.208,5.459 -6.231,13.683 -2.52,20.251 0.829,1.467 1.87,2.803 3.088,3.965 l 20.041,19.122 26.019,-27.27 -19.97,-19.055 c -1.265,-1.207 -2.706,-2.212 -4.275,-2.982 l -0.091,-0.045 c -6.71,-3.295 -14.781,-1.858 -19.941,3.55" /><path
       inkscape:connector-curvature="0"
       id="path68"
       style="fill:#e9b229;fill-opacity:1;fill-rule:nonzero;stroke:none;stroke-width:0.1"
       d="m 164.915,344.416 -4.357,4.566 c -0.45,0.472 -1.197,0.489 -1.668,0.039 l -1.28,-1.221 5.986,-6.274 1.28,1.222 c 0.471,0.45 0.489,1.196 0.039,1.668" /><path
       inkscape:connector-curvature="0"
       id="path70"
       style="fill:#414850;fill-opacity:1;fill-rule:nonzero;stroke:none;stroke-width:0.1"
       d="m 157.308,348.116 -9.646,3.787 19.566,-20.506 -3.632,10.129 -6.288,6.59" /><path
       inkscape:connector-curvature="0"
       id="path72"
       style="fill:#2c3238;fill-opacity:1;fill-rule:nonzero;stroke:none;stroke-width:0.1"
       d="m 167.23,331.396 -9.353,-8.916 -5.977,6.265 -13.584,14.239 2.225,2.115 5.183,4.954 1.936,1.847 13.583,-14.229 5.987,-6.275" /><path
       inkscape:connector-curvature="0"
       id="path74"
       style="fill:#1e2021;fill-opacity:1;fill-rule:nonzero;stroke:none;stroke-width:0.1"
       d="m 167.23,331.396 -9.353,-8.916 -5.977,6.265 9.343,8.926 5.987,-6.275" /><path
       inkscape:connector-curvature="0"
       id="path76"
       style="fill:#e9b229;fill-opacity:1;fill-rule:nonzero;stroke:none;stroke-width:0.1"
       d="m 154.322,341.038 -5.183,-4.945 -8.598,9.006 5.183,4.954 8.598,-9.015" /><path
       inkscape:connector-curvature="0"
       id="path78"
       style="fill:#d09023;fill-opacity:1;fill-rule:nonzero;stroke:none;stroke-width:0.1"
       d="m 213.774,368.722 c -0.777,-0.742 -7.232,4.761 -14.418,12.291 -7.185,7.53 -12.379,14.237 -11.601,14.979 0.778,0.742 7.233,-4.761 14.418,-12.291 7.185,-7.531 12.379,-14.237 11.601,-14.979" /><path
       inkscape:connector-curvature="0"
       id="path80"
       style="fill:#d09023;fill-opacity:1;fill-rule:nonzero;stroke:none;stroke-width:0.1"
       d="m 178.418,353.365 c -1.762,0 -2.901,0.656 -3.618,1.374 -0.582,0.581 -0.583,1.524 -0.001,2.106 0.581,0.582 1.524,0.583 2.106,10e-4 0.758,-0.757 2.48,-0.65 4.723,0.295 6.429,2.711 13.53,10.313 13.492,13.421 -0.016,1.244 -0.302,1.671 -0.412,1.731 -0.254,0.141 -1.041,-0.108 -1.523,-0.408 -0.696,-0.433 -1.614,-0.224 -2.05,0.469 -0.436,0.693 -0.235,1.606 0.456,2.047 0.257,0.164 2.57,1.576 4.533,0.513 1.284,-0.694 1.948,-2.146 1.975,-4.316 0.06,-4.994 -8.576,-13.361 -15.314,-16.202 -1.766,-0.745 -3.202,-1.031 -4.367,-1.031" /><path
       inkscape:connector-curvature="0"
       id="path82"
       style="fill:#f2764b;fill-opacity:1;fill-rule:nonzero;stroke:none;stroke-width:0.1"
       d="m 199.254,354.019 -3.608,3.601 c 0,0 -1.981,4.544 -2.837,6.255 -0.856,1.712 -2.08,0.442 -2.08,0.442 0,0 -1.849,3.648 -4.036,0.319 0,0 -2.164,0.516 -2.315,-3.457 0,0 -0.955,0.008 -1.226,-2.606 -0.272,-2.615 5.181,-6.607 7.346,-7.407 l 3.809,-4.066 4.947,6.919" /><path
       inkscape:connector-curvature="0"
       id="path84"
       style="fill:#f9f4f9;fill-opacity:1;fill-rule:nonzero;stroke:none;stroke-width:0.1"
       d="m 256.334,345.905 c -3.493,1.16 -13.743,-3.454 -18.208,-4.158 -4.464,-0.705 -8.27,0.003 -10.77,-0.746 -2.5,-0.749 -2.398,2.461 -5.964,1.35 -3.566,-1.111 -6.852,2.655 -13.912,6.786 -7.059,4.131 -6.707,6.155 -9.537,6.065 -2.83,-0.091 -6.009,-7.061 -6.411,-9.183 -0.402,-2.123 15.506,-14.841 21.167,-17.967 5.66,-3.126 10.24,-4.585 14.657,-3.948 4.418,0.637 16.793,0.979 23.025,2.328 6.232,1.348 8.172,6.009 8.617,12.168 0.445,6.159 -2.664,7.305 -2.664,7.305" /><path
       inkscape:connector-curvature="0"
       id="path86"
       style="fill:#e9333f;fill-opacity:1;fill-rule:nonzero;stroke:none;stroke-width:0.1"
       d="m 364.21,283.83 c 0.01,0.06 0.03,0.14 0.04,0.259 -0.01,-0.119 -0.02,-0.21 -0.04,-0.259" /><path
       inkscape:connector-curvature="0"
       id="path88"
       style="fill:#008000;fill-opacity:1;fill-rule:nonzero;stroke:none;stroke-width:0.1"
       d="m 364.35,286.12 c -0.03,-0.17 -0.11,-0.31 -0.21,-0.431 -0.76,3.17 -5.48,8.621 -30.49,3.511 -33.74,-6.89 -51.09,38.37 -55.24,49.9 -4.16,11.52 -9.59,16.94 -17.42,13.069 -5.47,-2.71 -3.89,1.031 -3.89,1.031 4.21,3.38 8.48,4.13 12.51,2.46 l 0.01,-0.011 c 5.63,-2.329 10.79,-9.399 14.61,-20.649 6.65,-19.621 20.43,-32.851 20.43,-32.851 17.96,-16.629 37.55,-2.27 52.28,-6.159 4.09,-1.071 5.97,-3.64 6.8,-6.151 0.45,-1.339 0.59,-2.659 0.61,-3.719" /><path
       inkscape:connector-curvature="0"
       id="path90"
       style="fill:#800000;fill-opacity:1;fill-rule:nonzero;stroke:none;stroke-width:0.1"
       d="m 257.1,353.2 c 0,0 0.271,3.348 -1.191,5.86 l -0.346,1.308 c 0,0 10.318,-1.782 13.715,-4.579 0,0 -6.169,2.171 -12.178,-2.589" /><path
       inkscape:connector-curvature="0"
       id="path92"
       style="fill:#800000;fill-opacity:1;fill-rule:nonzero;stroke:none;stroke-width:0.1"
       d="m 238.407,357.791 c 0,0 -2.655,-2.459 -3.546,-1.969 -0.891,0.49 0.472,2.629 1.773,3.921 1.302,1.292 3.637,2.14 3.637,2.14 0,0 0.798,-1.249 2.27,-1.964 0,0 -2.229,-0.384 -4.134,-2.128" /><path
       inkscape:connector-curvature="0"
       id="path94"
       style="fill:#f2764b;fill-opacity:1;fill-rule:nonzero;stroke:none;stroke-width:0.1"
       d="m 257.883,369.335 -0.009,-0.017 c -0.053,-0.141 -0.538,-1.394 -1.111,-3.529 l -0.009,-0.018 c -0.265,-0.979 -0.557,-2.152 -0.82,-3.484 l -0.01,-0.009 c -0.335,-1.632 -0.653,-3.511 -0.882,-5.592 -3.528,-3.997 -8.627,-6.043 -15.146,-5.029 -0.106,1.465 0.291,3 1.076,4.455 0.511,0.962 1.199,1.888 2.02,2.743 l 0.494,4.385 14.397,6.095" /><path
       inkscape:connector-curvature="0"
       id="path96"
       style="fill:#df473a;fill-opacity:1;fill-rule:nonzero;stroke:none;stroke-width:0.1"
       d="m 257.883,369.335 -0.009,-0.017 c -0.053,-0.141 -0.538,-1.394 -1.111,-3.529 l -0.009,-0.018 c -0.265,-0.979 -0.227,-0.62 -0.491,-1.952 -0.905,-4.719 -7.193,-10.539 -15.291,-7.707 0.511,0.962 1.199,1.888 2.02,2.743 l 0.494,4.385 14.397,6.095" /><path
       inkscape:connector-curvature="0"
       id="path98"
       style="fill:#f9f4f9;fill-opacity:1;fill-rule:nonzero;stroke:none;stroke-width:0.1"
       d="m 239.896,351.654 3.669,-0.868 c 0,0 3.092,-1.572 3.039,-4.349 0,0 10.168,5.554 10.43,7.755 0.261,2.201 -1.537,5.77 -1.537,5.77 l -0.561,-3.492 c 0,0 -8.384,-4 -15.04,-4.816" /><path
       inkscape:connector-curvature="0"
       id="path100"
       style="fill:#f9f4f9;fill-opacity:1;fill-rule:nonzero;stroke:none;stroke-width:0.1"
       d="m 243.117,359.962 c 0,0 -2.539,0.025 -5.264,-2.689 -2.725,-2.714 -3.28,-7.326 -3.28,-7.326 l 3.553,2.446 1.77,-0.739 c 0.584,2.479 1.578,4.886 3.096,7.201 l 0.125,1.107" /><path
       inkscape:connector-curvature="0"
       id="path102"
       style="fill:#000000;fill-opacity:1;fill-rule:nonzero;stroke:none;stroke-width:0.1"
       d="m 265.247,375.262 c 0,0 0,-9.014 -9.247,-12.633 -0.269,-0.104 -0.54,-0.19 -0.82,-0.279 -0.87,-0.27 -1.69,-0.371 -2.46,-0.33 -2.08,0.109 -3.83,1.24 -5.29,2.89 -4.49,5.09 -6.17,15.12 -6.17,15.12 0,0 -4.06,2.4 -1.44,6.639 0,0 -0.4,4.571 2.54,6.351 2.93,1.79 4.81,1.629 6.52,2.89 1.71,1.25 4.75,0.73 8.18,-4.301 3.43,-5.029 7.94,-2.619 10.35,-8.069 2.41,-5.451 -2.163,-8.278 -2.163,-8.278" /><path
       inkscape:connector-curvature="0"
       id="path104"
       style="fill:#333333;fill-opacity:1;fill-rule:nonzero;stroke:none;stroke-width:0.1"
       d="m 255.937,362.639 c 0.247,1.189 0.503,2.238 0.741,3.138 l 0.01,0.02 c 0.573,2.129 1.047,3.388 1.097,3.528 l 0.01,0.02 -6.78,-2.908 c -0.287,0.749 -0.475,1.259 -0.475,1.289 0,0.13 4.2,12.014 4.2,12.014 0,0 4.29,-4.158 10.507,-4.478 0,0 0.158,-9.155 -9.31,-12.623" /><path
       inkscape:connector-curvature="0"
       id="path106"
       style="fill:#f2764b;fill-opacity:1;fill-rule:nonzero;stroke:none;stroke-width:0.1"
       d="m 241.353,382.743 c 0,0 -5.244,-17.03 -0.381,-21.723 3.511,-3.388 9.55,-1.967 12.068,-0.543 2.518,1.423 4.794,5.81 4.794,5.81 0,0 3.418,-0.959 4.544,3.208 0.7,2.589 -2.325,3.972 -4.035,0.864 l -1.755,0.236 c 0,0 -0.396,1.869 0.629,3.511 1.679,2.693 -2.135,2.627 -2.254,4.704 -0.118,2.076 -1.33,2.554 -5.536,2.554 -5.03,0 -7.707,2.578 -7.707,2.578 l -0.367,-1.199" /><path
       inkscape:connector-curvature="0"
       id="path108"
       style="fill:#81191d;fill-opacity:1;fill-rule:nonzero;stroke:none;stroke-width:0.1"
       d="m 243.321,376.488 c -0.211,-0.587 -0.688,-0.952 -1.066,-0.817 -0.379,0.136 -0.514,0.722 -0.304,1.308 0.211,0.587 0.688,0.953 1.067,0.817 0.378,-0.135 0.514,-0.721 0.303,-1.308" /><path
       inkscape:connector-curvature="0"
       id="path110"
       style="fill:#81191d;fill-opacity:1;fill-rule:nonzero;stroke:none;stroke-width:0.1"
       d="m 249.417,374.483 c -0.21,-0.587 -0.688,-0.952 -1.066,-0.816 -0.378,0.135 -0.514,0.721 -0.304,1.308 0.211,0.587 0.688,0.952 1.066,0.816 0.379,-0.136 0.515,-0.721 0.304,-1.308" /><path
       inkscape:connector-curvature="0"
       id="path112"
       style="fill:#df473a;fill-opacity:1;fill-rule:nonzero;stroke:none;stroke-width:0.1"
       d="m 243.113,373.078 -0.022,-0.047 c -0.114,-0.229 -0.661,-1.248 -1.705,-2.097 -0.241,-0.198 -0.449,-0.358 -0.612,-0.522 -0.158,-0.161 -0.297,-0.345 -0.3,-0.593 0.005,-0.273 0.167,-0.488 0.414,-0.713 0.253,-0.227 0.621,-0.483 1.148,-0.813 0.117,-0.073 0.271,-0.038 0.344,0.079 0.074,0.117 0.038,0.271 -0.079,0.345 -0.516,0.323 -0.869,0.571 -1.078,0.76 -0.215,0.192 -0.253,0.308 -0.249,0.342 -0.003,0.033 0.025,0.111 0.155,0.241 0.126,0.127 0.328,0.286 0.573,0.486 1.288,1.051 1.856,2.306 1.866,2.325 0.058,0.126 0.002,0.274 -0.124,0.331 -0.125,0.057 -0.274,0.002 -0.331,-0.124" /><path
       inkscape:connector-curvature="0"
       id="path114"
       style="fill:#81191d;fill-opacity:1;fill-rule:nonzero;stroke:none;stroke-width:0.1"
       d="m 248.992,376.99 0.034,0.006 c 0.076,0.014 0.271,0.043 0.525,0.043 0.402,0.001 0.948,-0.074 1.421,-0.377 0.473,-0.304 0.898,-0.826 1.079,-1.815 0.024,-0.136 0.154,-0.226 0.29,-0.202 0.136,0.024 0.226,0.154 0.202,0.29 -0.195,1.099 -0.711,1.776 -1.302,2.149 -0.59,0.374 -1.23,0.455 -1.69,0.455 -0.39,0 -0.655,-0.058 -0.668,-0.061 -0.135,-0.03 -0.22,-0.164 -0.19,-0.298 0.03,-0.135 0.164,-0.22 0.299,-0.19" /><path
       inkscape:connector-curvature="0"
       id="path116"
       style="fill:#81191d;fill-opacity:1;fill-rule:nonzero;stroke:none;stroke-width:0.1"
       d="m 243.915,378.931 c -0.02,0.015 -0.798,1.026 -2.05,1.039 -0.516,10e-4 -1.097,-0.189 -1.68,-0.678 -0.106,-0.089 -0.12,-0.246 -0.032,-0.352 0.089,-0.106 0.247,-0.12 0.353,-0.032 0.511,0.426 0.963,0.56 1.359,0.562 0.478,0 0.894,-0.207 1.194,-0.425 0.149,-0.108 0.268,-0.217 0.348,-0.298 l 0.091,-0.096 0.026,-0.031 c 0.086,-0.108 0.244,-0.126 0.352,-0.04 0.108,0.086 0.125,0.243 0.039,0.351" /><path
       inkscape:connector-curvature="0"
       id="path118"
       style="fill:#ffffff;fill-opacity:1;fill-rule:nonzero;stroke:none;stroke-width:0.1"
       d="m 242.611,364.956 c 0,0 3.661,0.356 4.671,1.722 0,0 0.475,-2.495 -1.01,-3.03 -1.485,-0.534 -3.639,-0.296 -3.661,1.308" /><path
       inkscape:connector-curvature="0"
       id="path120"
       style="fill:#f2764b;fill-opacity:1;fill-rule:nonzero;stroke:none;stroke-width:0.1"
       d="m 257.88,369.339 -0.01,-0.019 c -0.05,-0.14 -0.53,-1.401 -1.11,-3.53 l -0.01,-0.02 c -0.24,-0.9 -0.5,-1.95 -0.75,-3.141 -0.27,-0.099 -0.54,-0.19 -0.82,-0.279 -0.87,-0.27 -1.69,-0.371 -2.46,-0.33 -2.08,0.109 -3.83,1.24 -5.29,2.89 l 10.45,4.429" /><path
       inkscape:connector-curvature="0"
       id="path122"
       style="fill:#4d4d4d;fill-opacity:1;fill-rule:nonzero;stroke:none;stroke-width:0.1"
       d="m 427.004,57.298 c 0,-3.948 -79.791,-7.15 -178.218,-7.15 -98.427,0 -178.2176,3.202 -178.2176,7.15 0,3.9481 79.7906,7.1481 178.2176,7.1481 98.427,0 178.218,-3.2 178.218,-7.1481" /><path
       inkscape:connector-curvature="0"
       id="path124"
       style="fill:#333333;fill-opacity:1;fill-rule:nonzero;stroke:none;stroke-width:0.1"
       d="m 224.465,198.35 h -76.39 V 57.793 h 76.39 V 198.35" /><path
       inkscape:connector-curvature="0"
       id="path126"
       style="fill:#333333;fill-opacity:1;fill-rule:nonzero;stroke:none;stroke-width:0.1"
       d="M 287.313,161.304 H 224.465 V 57.793 h 62.848 v 103.511" /><path
       inkscape:connector-curvature="0"
       id="path128"
       style="fill:#333333;fill-opacity:1;fill-rule:nonzero;stroke:none;stroke-width:0.1"
       d="M 334.959,119.899 H 287.313 V 57.793 h 47.646 v 62.106" /><path
       inkscape:connector-curvature="0"
       id="path130"
       style="fill:#1a1a1a;fill-opacity:1;fill-rule:nonzero;stroke:none;stroke-width:0.1"
       d="M 248.12,161.304 H 224.465 V 198.35 H 248.12 V 161.304" /><path
       inkscape:connector-curvature="0"
       id="path132"
       style="fill:#1a1a1a;fill-opacity:1;fill-rule:nonzero;stroke:none;stroke-width:0.1"
       d="m 309.778,119.899 h -22.465 v 41.405 h 22.465 v -41.405" /><path
       inkscape:connector-curvature="0"
       id="path134"
       style="fill:#1a1a1a;fill-opacity:1;fill-rule:nonzero;stroke:none;stroke-width:0.1"
       d="m 354.925,57.793 h -19.966 v 62.106 h 19.966 V 57.793" /><path
       inkscape:connector-curvature="0"
       id="path136"
       style="fill:#d77c1f;fill-opacity:1;fill-rule:nonzero;stroke:none;stroke-width:0.1"
       d="m 329.563,57.7898 c 0,0 -4.685,31.4481 2.555,33.6524 7.241,2.2039 6.487,-21.8672 1.932,-33.6524 h -4.487" /><path
       inkscape:connector-curvature="0"
       id="path138"
       style="fill:#e9b229;fill-opacity:1;fill-rule:nonzero;stroke:none;stroke-width:0.1"
       d="m 331.276,57.7898 h -4.999 c 0,0 -8.222,13.9731 -7.119,22.3192 1.105,8.3461 12.596,-2.2879 12.118,-22.3192" /><path
       inkscape:connector-curvature="0"
       id="path140"
       style="fill:#e9b229;fill-opacity:1;fill-rule:nonzero;stroke:none;stroke-width:0.1"
       d="m 337.725,57.7898 h -6.449 c 0,0 4.523,20.7473 12.887,19.175 8.364,-1.5808 -6.438,-19.175 -6.438,-19.175" /><path
       inkscape:connector-curvature="0"
       id="path142"
       style="fill:#d77c1f;fill-opacity:1;fill-rule:nonzero;stroke:none;stroke-width:0.1"
       d="m 323.805,77.2289 c 0.052,-0.1141 4.424,-9.5207 5.758,-19.4391 h -0.892 c -1.316,9.7243 -5.608,18.9543 -5.661,19.0684 -0.107,0.2207 -0.009,0.4867 0.212,0.5828 0.22,0.107 0.485,0.009 0.583,-0.2121" /><path
       inkscape:connector-curvature="0"
       id="path144"
       style="fill:#d77c1f;fill-opacity:1;fill-rule:nonzero;stroke:none;stroke-width:0.1"
       d="m 343.447,73.502 c -3.497,-3.559 -6.553,-10.6071 -8.443,-15.7122 h -0.954 c 1.899,5.1852 5.053,12.5512 8.77,16.3313 0.177,0.1758 0.451,0.1758 0.627,0.009 0.177,-0.177 0.177,-0.4512 0,-0.6281" /><path
       inkscape:connector-curvature="0"
       id="path146"
       style="fill:#d77c1f;fill-opacity:1;fill-rule:nonzero;stroke:none;stroke-width:0.1"
       d="m 147.994,57.7898 c 0,0 6.288,42.2012 -3.429,45.1582 -9.716,2.958 -8.704,-29.3429 -2.592,-45.1582 h 6.021" /><path
       inkscape:connector-curvature="0"
       id="path148"
       style="fill:#e9b229;fill-opacity:1;fill-rule:nonzero;stroke:none;stroke-width:0.1"
       d="m 145.695,57.7898 h 6.708 c 0,0 11.035,18.75 9.553,29.95 -1.481,11.2 -16.901,-3.0687 -16.261,-29.95" /><path
       inkscape:connector-curvature="0"
       id="path150"
       style="fill:#e9b229;fill-opacity:1;fill-rule:nonzero;stroke:none;stroke-width:0.1"
       d="m 137.042,57.7898 h 8.653 c 0,0 -6.069,27.8411 -17.293,25.7313 -11.224,-2.1223 8.64,-25.7313 8.64,-25.7313" /><path
       inkscape:connector-curvature="0"
       id="path152"
       style="fill:#d77c1f;fill-opacity:1;fill-rule:nonzero;stroke:none;stroke-width:0.1"
       d="M 155.722,83.877 C 155.651,83.723 149.784,71.1 147.994,57.7898 h 1.197 c 1.767,13.0493 7.526,25.4352 7.598,25.5891 0.142,0.2961 0.011,0.6512 -0.285,0.782 -0.296,0.1422 -0.652,0.0121 -0.782,-0.2839" /><path
       inkscape:connector-curvature="0"
       id="path154"
       style="fill:#d77c1f;fill-opacity:1;fill-rule:nonzero;stroke:none;stroke-width:0.1"
       d="m 129.362,78.875 c 4.694,-4.7758 8.795,-14.234 11.331,-21.0852 h 1.28 c -2.548,6.9571 -6.779,16.8422 -11.769,21.9141 -0.237,0.2371 -0.604,0.2371 -0.842,0.0133 -0.237,-0.2383 -0.237,-0.6051 0,-0.8422" /></g></svg>